<?xml version="1.0" encoding="utf-8"?>
<!-- Generator: Adobe Illustrator 18.0.0, SVG Export Plug-In . SVG Version: 6.00 Build 0)  -->
<!DOCTYPE svg PUBLIC "-//W3C//DTD SVG 1.1//EN" "http://www.w3.org/Graphics/SVG/1.1/DTD/svg11.dtd">
<svg version="1.1" id="bg_1" xmlns="http://www.w3.org/2000/svg" xmlns:xlink="http://www.w3.org/1999/xlink" x="0px"
	 y="0px" viewBox="0 122.8 595.3 596.4" enable-background="new 0 122.8 595.3 596.4" xml:space="preserve">
<g>
	<polygon fill="#FFAB2E" points="298.2,421 298.2,421 298.2,421 	"/>
	<polygon fill="#FFAB2E" points="298.2,421 298.2,421 298.2,421 	"/>
	<polygon fill="#FFAB2E" points="298.2,421 298.2,421 298.2,421 	"/>
	<polygon fill="#FFAB2E" points="298.2,421 298.2,421 298.2,421 	"/>
	<polygon fill="#FFAB2E" points="298.2,421 298.2,421 298.2,421 	"/>
	<polygon fill="#FFAB2E" points="298.2,421 298.2,421 298.2,421 	"/>
	<polygon fill="#FFAB2E" points="298.2,421 298.2,421 298.2,421 	"/>
	<polygon fill="#FFAB2E" points="298.2,421 298.2,421 298.2,421 	"/>
	<polygon fill="#FFAB2E" points="298.2,421 298.2,421 298.2,421 298.2,420.9 298.2,420.9 	"/>
	<polygon fill="#FFAB2E" points="298.2,420.9 298.2,420.9 298.2,420.9 	"/>
	<polygon fill="#FFAB2E" points="298.2,421 298.2,421 298.2,421 	"/>
	<polygon fill="#FFAB2E" points="298.2,420.9 298.2,420.9 298.2,420.9 	"/>
	<polygon fill="#FFAB2E" points="298.2,421 298.2,421 298.2,421 	"/>
	<path fill="#FFAB2E" d="M298.2,421L298.2,421L298.2,421z"/>
	<polygon fill="#FFAB2E" points="298.2,421 298.2,421 298.2,421 298.2,421 	"/>
	<rect x="298.2" y="420.9" fill="#FFAB2E" width="0" height="0"/>
	<path fill="#FFAB2E" d="M298.2,421L298.2,421L298.2,421z"/>
	<path fill="#FFAB2E" d="M298.2,420.9L298.2,420.9L298.2,420.9z"/>
	<path fill="#FFAB2E" d="M298.2,420.9L298.2,420.9L298.2,420.9z"/>
	<rect x="298.2" y="420.9" fill="#FFAB2E" width="0" height="0"/>
	<path fill="#FFAB2E" d="M298.2,420.9L298.2,420.9L298.2,420.9z"/>
	<path fill="#FFAB2E" d="M298.2,420.9L298.2,420.9L298.2,420.9z"/>
	<path fill="#FFAB2E" d="M298.2,421L298.2,421L298.2,421z"/>
	<rect x="298.2" y="420.9" fill="#FFAB2E" width="0" height="0"/>
	<polygon fill="#FFAB2E" points="298.2,420.9 298.2,421 298.2,420.9 	"/>
	<polygon fill="#FFAB2E" points="298.2,421 298.2,421 298.2,421 	"/>
	<path fill="#FFAB2E" d="M298.2,421L298.2,421L298.2,421z"/>
	<polygon fill="#FFAB2E" points="298.2,421 298.2,421 298.2,421 	"/>
	<path fill="#FFAB2E" d="M298.2,421L298.2,421L298.2,421z"/>
	<polygon fill="#FFAB2E" points="298.2,420.9 298.2,420.9 298.2,421 298.2,421 	"/>
	<path fill="#FFAB2E" d="M298.2,421L298.2,421L298.2,421z"/>
	<path fill="#FFAB2E" d="M298.2,421L298.2,421L298.2,421z"/>
	<polygon fill="#FFAB2E" points="298.2,421 298.2,421 298.2,421 	"/>
	<polygon fill="#FFAB2E" points="298.2,421 298.2,421 298.2,421 	"/>
	<path fill="#FFAB2E" d="M298.2,421L298.2,421L298.2,421z"/>
	<polygon fill="#FFAB2E" points="298.2,421 298.2,421 298.2,420.9 	"/>
	<polygon fill="#FFAB2E" points="298.2,420.9 298.2,420.9 298.2,420.9 	"/>
	<polygon fill="#FFAB2E" points="298.2,420.9 298.2,420.9 298.2,420.9 	"/>
	<polygon fill="#FFAB2E" points="298.2,420.9 298.2,420.9 298.2,420.9 	"/>
	<polygon fill="#FFAB2E" points="298.2,420.9 298.2,420.9 298.2,420.9 	"/>
	<polygon fill="#FFAB2E" points="298.2,420.9 298.2,420.9 298.2,420.9 298.2,420.9 	"/>
	<path fill="#FFAB2E" d="M298.2,420.9L298.2,420.9L298.2,420.9z"/>
	<polygon fill="#FFAB2E" points="298.2,420.9 298.2,420.9 298.2,420.9 298.2,420.9 298.2,420.9 	"/>
	<path fill="#FFAB2E" d="M298.2,420.9L298.2,420.9L298.2,420.9z"/>
	<path fill="#FFAB2E" d="M298.2,420.9L298.2,420.9L298.2,420.9z"/>
	<path fill="#FFAB2E" d="M298.2,421L298.2,421L298.2,421z"/>
	<path fill="#FFAB2E" d="M298.2,421L298.2,421L298.2,421z"/>
	<path fill="#FFAB2E" d="M298.2,421L298.2,421L298.2,421z"/>
	<path fill="#FFAB2E" d="M298.2,420.9L298.2,420.9L298.2,420.9z"/>
	<path fill="#FFAB2E" d="M298.2,421L298.2,421L298.2,421z"/>
	<path fill="#FFAB2E" d="M298.2,420.9L298.2,420.9L298.2,420.9z"/>
	<path fill="#FFAB2E" d="M298.2,420.9L298.2,420.9L298.2,420.9z"/>
	<path fill="#FFAB2E" d="M298.2,420.9L298.2,420.9L298.2,420.9z"/>
	<path fill="#FFAB2E" d="M298.2,421L298.2,421L298.2,421z"/>
	<path fill="#FFAB2E" d="M298.2,421L298.2,421L298.2,421z"/>
	<polygon fill="#FFAB2E" points="298.2,420.9 298.2,420.9 298.2,420.9 	"/>
	<polygon fill="#FFAB2E" points="298.2,421 298.2,421 298.2,421 	"/>
	<path fill="#FFAB2E" d="M298.2,421L298.2,421L298.2,421z"/>
	<polygon fill="#FFAB2E" points="298.2,421 298.2,421 298.2,421 	"/>
	<polygon fill="#FFAB2E" points="298.2,421 298.2,421 298.2,421 	"/>
	<polygon fill="#FFAB2E" points="298.2,421 298.2,421 298.2,421 	"/>
	<polygon fill="#FFAB2E" points="298.2,421 298.2,421 298.2,421 	"/>
	<polygon fill="#FFAB2E" points="298.2,421 298.2,421 298.2,421 	"/>
	<path fill="#FFAB2E" d="M298.2,420.9L298.2,420.9L298.2,420.9z"/>
	<polygon fill="#FFAB2E" points="298.2,421 298.2,421 298.2,421 	"/>
	<path fill="#FFAB2E" d="M298.2,420.9L298.2,420.9L298.2,420.9z"/>
	<polygon fill="#FFAB2E" points="298.2,421 298.2,421 298.2,421 	"/>
	<polygon fill="#FFAB2E" points="298.2,420.9 298.2,421 298.2,420.9 298.2,420.9 	"/>
	<polygon fill="#FFAB2E" points="298.2,421 298.2,421 298.2,421 	"/>
	<polygon fill="#FFAB2E" points="298.2,421 298.2,421 298.2,421 	"/>
	<path fill="#FFAB2E" d="M298.2,420.9L298.2,420.9L298.2,420.9z"/>
	<path fill="#FFAB2E" d="M298.2,421L298.2,421L298.2,421z"/>
	<path fill="#FFAB2E" d="M298.2,420.9L149.1,162.7c-15.1,8.7-29.3,18.7-42.6,29.9L298.2,420.9L298.2,420.9z"/>
	<path fill="#FFAB2E" d="M298.2,420.9L298.2,420.9L350,127.3c-16.8-2.9-34.1-4.5-51.8-4.5V420.9L298.2,420.9z"/>
	<path fill="#FFAB2E" d="M298.2,420.9L298.2,420.9l-280.3-102C12,335.1,7.5,351.8,4.5,369.2L298.2,420.9L298.2,420.9z"/>
	<path fill="#FFAB2E" d="M69.8,229.3c-11.1,13.2-21.1,27.5-29.9,42.5l258.3,149.1L69.8,229.3z"/>
	<path fill="#FFAB2E" d="M246.4,127.3c-17.3,3-34.1,7.5-50.2,13.4l102,280.3L246.4,127.3z"/>
	<path fill="#FFAB2E" d="M298.2,420.9l280.3-102c-6-16.4-13.4-32.2-22-47.1L298.2,420.9L298.2,420.9z"/>
	<path fill="#FFAB2E" d="M298.2,421l298.2,0l0,0c0-17.7-1.5-35-4.5-51.8L298.2,421L298.2,421L298.2,421z"/>
	<path fill="#FFAB2E" d="M298.2,420.9l149.1-258.3c-14.9-8.6-30.7-16-47.1-22L298.2,420.9L298.2,420.9z"/>
	<path fill="#FFAB2E" d="M298.2,420.9l228.4-191.7c-11.2-13.3-23.5-25.6-36.8-36.8L298.2,420.9L298.2,420.9z"/>
	<polygon fill="#FFAB2E" points="298.2,420.9 298.2,420.9 298.2,420.9 	"/>
	<path fill="#FFAB2E" d="M447.3,679.2c15.1-8.7,29.3-18.7,42.5-29.9L298.2,421L447.3,679.2z"/>
	<path fill="#FFAB2E" d="M298.2,421L298.2,421L350,714.6c17.3-3,34.1-7.5,50.2-13.4L298.2,421L298.2,421z"/>
	<path fill="#FFAB2E" d="M298.2,421H0c0,17.7,1.5,35,4.5,51.8L298.2,421L298.2,421z"/>
	<path fill="#FFAB2E" d="M298.2,421l280.3,102c5.9-16.1,10.4-32.9,13.4-50.2L298.2,421z"/>
	<path fill="#FFAB2E" d="M298.2,421L298.2,421l228.4,191.7c11.1-13.3,21.1-27.5,29.9-42.6L298.2,421L298.2,421z"/>
	<path fill="#FFAB2E" d="M298.2,421l-51.8,293.7c16.8,2.9,34.1,4.5,51.8,4.5L298.2,421L298.2,421z"/>
	<path fill="#FFAB2E" d="M298.2,421L69.8,612.6c11.2,13.3,23.5,25.6,36.7,36.7L298.2,421L298.2,421z"/>
	<path fill="#FFAB2E" d="M298.2,421L298.2,421L17.9,523c6,16.4,13.4,32.2,22,47.1L298.2,421L298.2,421z"/>
	<path fill="#FFAB2E" d="M298.2,421L149.1,679.2c14.9,8.6,30.7,16,47.1,22L298.2,421L298.2,421z"/>
	<polygon fill="#FFAB2E" points="298.2,420.9 298.2,420.9 298.2,420.9 	"/>
	<path fill="#FFAB2E" d="M298.2,420.9L298.2,420.9L298.2,420.9z"/>
	<polygon fill="#FFAB2E" points="298.2,420.9 298.2,420.9 298.2,420.9 	"/>
	<path fill="#FFAB2E" d="M298.2,420.9L298.2,420.9L298.2,420.9z"/>
	<polygon fill="#FFAB2E" points="298.2,420.9 298.2,420.9 298.2,420.9 	"/>
	<polygon fill="#FFAB2E" points="298.2,420.9 298.2,420.9 298.2,420.9 	"/>
	<polygon fill="#FFAB2E" points="298.2,420.9 298.2,420.9 298.2,420.9 	"/>
	<path fill="#FFAB2E" d="M298.2,420.9L298.2,420.9L298.2,420.9z"/>
	<polygon fill="#FFAB2E" points="298.2,420.9 298.2,420.9 298.2,420.9 	"/>
	<polygon fill="#FFAB2E" points="298.2,420.9 298.2,420.9 298.2,420.9 298.2,420.9 	"/>
	<path fill="#FFAB2E" d="M298.2,420.9L298.2,420.9L298.2,420.9z"/>
	<polygon fill="#FFAB2E" points="298.2,420.9 298.2,420.9 298.2,420.9 	"/>
	<path fill="#FFAB2E" d="M298.2,420.9L298.2,420.9L298.2,420.9z"/>
	<polygon fill="#FFAB2E" points="298.2,420.9 298.2,420.9 298.2,420.9 	"/>
	<polygon fill="#FFAB2E" points="298.2,420.9 298.2,420.9 298.2,420.9 	"/>
	<polygon fill="#FFAB2E" points="298.2,420.9 298.2,420.9 298.2,420.9 	"/>
	<polygon fill="#FFAB2E" points="298.2,420.9 298.2,420.9 298.2,420.9 	"/>
	<polygon fill="#FFAB2E" points="298.2,421 298.2,421 298.2,421 	"/>
	<polygon fill="#FFAB2E" points="298.2,421 298.2,421 298.2,421 298.2,421 	"/>
	<polygon fill="#FFAB2E" points="298.2,421 298.2,421 298.2,421 	"/>
	<path fill="#FFAB2E" d="M298.2,421L298.2,421L298.2,421z"/>
	<polygon fill="#FFAB2E" points="298.2,421 298.2,421 298.2,421 	"/>
	<polygon fill="#FFAB2E" points="298.2,421 298.2,421 298.2,421 	"/>
	<polygon fill="#FFAB2E" points="298.2,421 298.2,421 298.2,421 	"/>
	<polygon fill="#FFAB2E" points="298.2,421 298.2,421 298.2,421 	"/>
	<polygon fill="#FFAB2E" points="298.2,421 298.2,421 298.2,421 298.2,421 	"/>
	<polygon fill="#FFAB2E" points="298.2,421 298.2,421 298.2,421 	"/>
	<path fill="#FFAB2E" d="M298.2,421L298.2,421L298.2,421z"/>
	<polygon fill="#FFAB2E" points="298.2,421 298.2,421 298.2,421 	"/>
	<polygon fill="#FFAB2E" points="298.2,420.9 298.2,420.9 298.2,420.9 	"/>
	<polygon fill="#FFAB2E" points="298.2,421 298.2,421 298.2,420.9 298.2,421 	"/>
	<polygon fill="#FFAB2E" points="298.2,421 298.2,421 298.2,421 	"/>
	<polygon fill="#FFAB2E" points="298.2,421 298.2,421 298.2,421 	"/>
	<polygon fill="#FFAB2E" points="298.2,421 298.2,421 298.2,421 298.2,421 	"/>
	<polygon fill="#FFAB2E" points="298.2,421 298.2,421 298.2,421 	"/>
</g>
</svg>
